<svg xmlns="http://www.w3.org/2000/svg" width="470" height="560" viewBox="0 0 470 560">
  <rect x="0" y="0" width="470" height="560" fill="#fffdf4"/>
  <g fill="#000000" opacity="0.014">
    <rect x="31" y="59" width="14" height="1"/>
    <rect x="128" y="232" width="14" height="1"/>
    <rect x="225" y="405" width="14" height="1"/>
    <rect x="322" y="18" width="14" height="1"/>
    <rect x="419" y="191" width="14" height="1"/>
    <rect x="46" y="364" width="14" height="1"/>
    <rect x="143" y="537" width="14" height="1"/>
    <rect x="240" y="150" width="14" height="1"/>
    <rect x="337" y="323" width="14" height="1"/>
    <rect x="434" y="496" width="14" height="1"/>
    <rect x="61" y="109" width="14" height="1"/>
    <rect x="158" y="282" width="14" height="1"/>
    <rect x="255" y="455" width="14" height="1"/>
    <rect x="352" y="68" width="14" height="1"/>
    <rect x="449" y="241" width="14" height="1"/>
    <rect x="76" y="414" width="14" height="1"/>
    <rect x="173" y="27" width="14" height="1"/>
    <rect x="270" y="200" width="14" height="1"/>
    <rect x="367" y="373" width="14" height="1"/>
    <rect x="464" y="546" width="14" height="1"/>
    <rect x="91" y="159" width="14" height="1"/>
    <rect x="188" y="332" width="14" height="1"/>
    <rect x="285" y="505" width="14" height="1"/>
    <rect x="382" y="118" width="14" height="1"/>
    <rect x="9" y="291" width="14" height="1"/>
    <rect x="106" y="464" width="14" height="1"/>
    <rect x="203" y="77" width="14" height="1"/>
    <rect x="300" y="250" width="14" height="1"/>
    <rect x="77" y="23" width="1" height="12"/>
    <rect x="208" y="234" width="1" height="12"/>
    <rect x="339" y="445" width="1" height="12"/>
    <rect x="0" y="96" width="1" height="12"/>
    <rect x="131" y="307" width="1" height="12"/>
    <rect x="262" y="518" width="1" height="12"/>
    <rect x="393" y="169" width="1" height="12"/>
    <rect x="54" y="380" width="1" height="12"/>
    <rect x="185" y="31" width="1" height="12"/>
    <rect x="316" y="242" width="1" height="12"/>
    <rect x="447" y="453" width="1" height="12"/>
    <rect x="108" y="104" width="1" height="12"/>
    <rect x="239" y="315" width="1" height="12"/>
    <rect x="370" y="526" width="1" height="12"/>
    <rect x="31" y="177" width="1" height="12"/>
    <rect x="162" y="388" width="1" height="12"/>
    <rect x="293" y="39" width="1" height="12"/>
    <rect x="424" y="250" width="1" height="12"/>
    <rect x="85" y="461" width="1" height="12"/>
    <rect x="216" y="112" width="1" height="12"/>
    <rect x="347" y="323" width="1" height="12"/>
    <rect x="8" y="534" width="1" height="12"/>
  </g>
</svg>
